<svg width="199" height="38" viewBox="0 0 199 38" fill="none" xmlns="http://www.w3.org/2000/svg">
<g filter="url(#filter0_dd_1_3)">
<rect x="3.1" y="2.1" width="31.8" height="31.8" rx="7.9" fill="white"/>
<rect x="3.1" y="2.1" width="31.8" height="31.8" rx="7.9" fill="url(#paint0_linear_1_3)"/>
<rect x="3.1" y="2.1" width="31.8" height="31.8" rx="7.9" stroke="#D0D5DD" stroke-width="0.2"/>
<path d="M18.3546 13.1827C22.7105 11.4503 27.4742 12.8184 29.6373 14.9132C30.106 15.3671 30.5041 15.8275 30.845 16.2851C31.0394 15.2107 31.0552 14.1405 30.8681 13.1055C30.1847 9.32646 26.6195 7.18559 23.4233 8.29146C20.2415 9.39237 19.0005 11.5321 19.0005 11.5321C19.0005 11.5321 17.7595 9.39237 14.5777 8.29146C11.3812 7.18559 7.81603 9.3267 7.1328 13.1055C6.62842 15.8944 7.58356 18.9391 9.61033 21.6298C10.0372 21.7732 10.4847 21.8809 10.9586 21.943C13.7978 22.3163 14.8184 21.557 16.0178 21.0486C16.8142 20.7112 17.4134 21.0942 17.3843 21.3626C17.3392 21.7786 15.7693 22.4895 16.106 22.6388C17.4351 23.2284 19.0718 23.2334 20.3053 22.18C21.838 20.8712 22.4114 21.7658 22.4114 21.7658C22.4114 21.7658 21.6502 23.7076 19.3581 24.6717C17.4457 25.4761 15.4419 25.6743 13.6107 25.4683C15.19 26.5846 17.0035 27.5204 19.0005 28.1882C24.7099 26.2784 28.9276 22.1871 30.4145 17.9096C29.4072 16.9157 28.1716 16.2995 26.6988 16.0763C23.8674 15.647 22.8322 16.3862 21.6228 16.8708C20.8198 17.1926 20.2285 16.7978 20.263 16.5299C20.3161 16.1148 21.8999 15.4351 21.5661 15.279C20.249 14.6633 18.6125 14.626 17.3585 15.6548C15.8003 16.9332 15.2446 16.0274 15.2446 16.0274C15.2446 16.0274 16.0438 14.1015 18.3546 13.1827ZM17.2709 18.5052H18.3709V17.4052H19.6296V18.5052H20.7296V19.7639H19.6296V20.8638H18.3709V19.7639H17.2709V18.5052Z" fill="url(#paint1_linear_1_3)"/>
<path d="M17.2709 18.5052H18.3709V17.4052H19.6296V18.5052H20.7296V19.7639H19.6379C21.2597 20.5834 24.2383 21.8027 27.8177 22.3451C28.9956 20.9517 29.8813 19.4428 30.4143 17.9096C29.4069 16.9157 28.1714 16.2996 26.6986 16.0763C23.8672 15.647 22.8319 16.3863 21.6226 16.8708C20.8196 17.1926 20.2283 16.7978 20.2627 16.5299C20.3159 16.1148 21.8997 15.4351 21.5659 15.279C20.2488 14.6633 18.6123 14.626 17.3583 15.6548C15.8 16.9332 15.2444 16.0274 15.2444 16.0274C15.2444 16.0274 16.0438 14.1013 18.3543 13.1823C22.7103 11.4499 27.474 12.818 29.637 14.9128C30.1058 15.3666 30.5038 15.8271 30.8447 16.2847C31.0392 15.2102 31.055 14.14 30.8679 13.105C30.1844 9.326 26.6192 7.18512 23.423 8.291C20.2412 9.39191 19.0002 11.5316 19.0002 11.5316C19.0002 11.5316 17.7592 9.39191 14.5774 8.291C12.752 7.65927 10.8067 8.0883 9.34621 9.27521C10.0323 10.7442 10.836 12.1168 13.1255 14.8773C14.9869 17.1222 17.2709 18.5052 17.2709 18.5052Z" fill="url(#paint2_linear_1_3)"/>
<path opacity="0.31" d="M27.2769 9.64942C24.2711 8.13933 21.169 10.489 20.185 11.7298C21.882 11.3724 23.3668 11.189 25.2457 11.5838C28.0251 12.1678 29.0653 13.1714 30.3063 14.6541C30.0871 11.9068 28.3518 10.1895 27.2769 9.64942Z" fill="url(#paint3_linear_1_3)"/>
</g>
<path d="M46.728 28V10.12H49.848L56.544 19.216H55.056L61.608 10.12H64.728V28H61.44V13.84L62.712 14.152L55.92 23.2H55.536L48.912 14.152L49.992 13.84V28H46.728ZM74.0779 28.288C72.7339 28.288 71.5579 27.984 70.5499 27.376C69.5419 26.768 68.7579 25.944 68.1979 24.904C67.6379 23.864 67.3579 22.712 67.3579 21.448C67.3579 20.136 67.6379 18.976 68.1979 17.968C68.7739 16.944 69.5499 16.136 70.5259 15.544C71.5179 14.952 72.6219 14.656 73.8379 14.656C74.8619 14.656 75.7579 14.824 76.5259 15.16C77.3099 15.496 77.9739 15.96 78.5179 16.552C79.0619 17.144 79.4779 17.824 79.7659 18.592C80.0539 19.344 80.1979 20.16 80.1979 21.04C80.1979 21.264 80.1819 21.496 80.1499 21.736C80.1339 21.976 80.0939 22.184 80.0299 22.36H69.9499V19.96H78.2539L76.7659 21.088C76.9099 20.352 76.8699 19.696 76.6459 19.12C76.4379 18.544 76.0859 18.088 75.5899 17.752C75.1099 17.416 74.5259 17.248 73.8379 17.248C73.1819 17.248 72.5979 17.416 72.0859 17.752C71.5739 18.072 71.1819 18.552 70.9099 19.192C70.6539 19.816 70.5579 20.576 70.6219 21.472C70.5579 22.272 70.6619 22.984 70.9339 23.608C71.2219 24.216 71.6379 24.688 72.1819 25.024C72.7419 25.36 73.3819 25.528 74.1019 25.528C74.8219 25.528 75.4299 25.376 75.9259 25.072C76.4379 24.768 76.8379 24.36 77.1259 23.848L79.6699 25.096C79.4139 25.72 79.0139 26.272 78.4699 26.752C77.9259 27.232 77.2779 27.608 76.5259 27.88C75.7899 28.152 74.9739 28.288 74.0779 28.288ZM88.6532 28.288C87.3892 28.288 86.2612 27.992 85.2692 27.4C84.2772 26.792 83.4932 25.968 82.9172 24.928C82.3412 23.888 82.0532 22.736 82.0532 21.472C82.0532 20.192 82.3412 19.04 82.9172 18.016C83.4932 16.992 84.2772 16.176 85.2692 15.568C86.2772 14.96 87.3972 14.656 88.6292 14.656C89.6212 14.656 90.5012 14.856 91.2692 15.256C92.0532 15.64 92.6692 16.184 93.1172 16.888L92.6372 17.536V9.832H95.7812V28H92.8052V25.48L93.1412 26.104C92.6932 26.808 92.0692 27.352 91.2692 27.736C90.4692 28.104 89.5972 28.288 88.6532 28.288ZM88.9892 25.408C89.7092 25.408 90.3412 25.24 90.8852 24.904C91.4292 24.568 91.8532 24.104 92.1572 23.512C92.4772 22.92 92.6372 22.24 92.6372 21.472C92.6372 20.72 92.4772 20.048 92.1572 19.456C91.8532 18.848 91.4292 18.376 90.8852 18.04C90.3412 17.704 89.7092 17.536 88.9892 17.536C88.2852 17.536 87.6532 17.712 87.0932 18.064C86.5332 18.4 86.0932 18.864 85.7732 19.456C85.4692 20.032 85.3172 20.704 85.3172 21.472C85.3172 22.24 85.4692 22.92 85.7732 23.512C86.0932 24.104 86.5332 24.568 87.0932 24.904C87.6532 25.24 88.2852 25.408 88.9892 25.408ZM107.37 28.288C106.09 28.288 104.906 28.056 103.818 27.592C102.746 27.128 101.802 26.48 100.986 25.648C100.186 24.816 99.5622 23.84 99.1142 22.72C98.6662 21.6 98.4422 20.376 98.4422 19.048C98.4422 17.72 98.6582 16.496 99.0902 15.376C99.5382 14.24 100.162 13.264 100.962 12.448C101.778 11.616 102.73 10.976 103.818 10.528C104.906 10.064 106.09 9.832 107.37 9.832C108.65 9.832 109.794 10.048 110.802 10.48C111.826 10.912 112.69 11.488 113.394 12.208C114.098 12.912 114.602 13.688 114.906 14.536L111.978 15.904C111.642 15.008 111.074 14.272 110.274 13.696C109.474 13.104 108.506 12.808 107.37 12.808C106.25 12.808 105.258 13.072 104.394 13.6C103.546 14.128 102.882 14.856 102.402 15.784C101.938 16.712 101.706 17.8 101.706 19.048C101.706 20.296 101.938 21.392 102.402 22.336C102.882 23.264 103.546 23.992 104.394 24.52C105.258 25.048 106.25 25.312 107.37 25.312C108.506 25.312 109.474 25.024 110.274 24.448C111.074 23.856 111.642 23.112 111.978 22.216L114.906 23.584C114.602 24.432 114.098 25.216 113.394 25.936C112.69 26.64 111.826 27.208 110.802 27.64C109.794 28.072 108.65 28.288 107.37 28.288ZM123.442 28.288C122.162 28.288 120.994 27.992 119.938 27.4C118.898 26.808 118.066 26 117.442 24.976C116.834 23.952 116.53 22.784 116.53 21.472C116.53 20.16 116.834 18.992 117.442 17.968C118.066 16.944 118.898 16.136 119.938 15.544C120.978 14.952 122.146 14.656 123.442 14.656C124.722 14.656 125.882 14.952 126.922 15.544C127.962 16.136 128.786 16.944 129.394 17.968C130.018 18.976 130.33 20.144 130.33 21.472C130.33 22.784 130.018 23.952 129.394 24.976C128.77 26 127.938 26.808 126.898 27.4C125.858 27.992 124.706 28.288 123.442 28.288ZM123.442 25.408C124.146 25.408 124.762 25.24 125.29 24.904C125.834 24.568 126.258 24.104 126.562 23.512C126.882 22.904 127.042 22.224 127.042 21.472C127.042 20.704 126.882 20.032 126.562 19.456C126.258 18.864 125.834 18.4 125.29 18.064C124.762 17.712 124.146 17.536 123.442 17.536C122.722 17.536 122.09 17.712 121.546 18.064C121.002 18.4 120.57 18.864 120.25 19.456C119.946 20.032 119.794 20.704 119.794 21.472C119.794 22.224 119.946 22.904 120.25 23.512C120.57 24.104 121.002 24.568 121.546 24.904C122.09 25.24 122.722 25.408 123.442 25.408ZM132.714 28V14.944H135.666V17.512L135.426 17.056C135.73 16.272 136.226 15.68 136.914 15.28C137.618 14.864 138.434 14.656 139.362 14.656C140.322 14.656 141.17 14.864 141.906 15.28C142.658 15.696 143.242 16.28 143.658 17.032C144.074 17.768 144.282 18.624 144.282 19.6V28H141.138V20.344C141.138 19.768 141.026 19.272 140.802 18.856C140.578 18.44 140.266 18.12 139.866 17.896C139.482 17.656 139.026 17.536 138.498 17.536C137.986 17.536 137.53 17.656 137.13 17.896C136.73 18.12 136.418 18.44 136.194 18.856C135.97 19.272 135.858 19.768 135.858 20.344V28H132.714ZM146.941 28V14.944H149.893V17.512L149.653 17.056C149.957 16.272 150.453 15.68 151.141 15.28C151.845 14.864 152.661 14.656 153.589 14.656C154.549 14.656 155.397 14.864 156.133 15.28C156.885 15.696 157.469 16.28 157.885 17.032C158.301 17.768 158.509 18.624 158.509 19.6V28H155.365V20.344C155.365 19.768 155.253 19.272 155.029 18.856C154.805 18.44 154.493 18.12 154.093 17.896C153.709 17.656 153.253 17.536 152.725 17.536C152.213 17.536 151.757 17.656 151.357 17.896C150.957 18.12 150.645 18.44 150.421 18.856C150.197 19.272 150.085 19.768 150.085 20.344V28H146.941ZM167.359 28.288C166.015 28.288 164.839 27.984 163.831 27.376C162.823 26.768 162.039 25.944 161.479 24.904C160.919 23.864 160.639 22.712 160.639 21.448C160.639 20.136 160.919 18.976 161.479 17.968C162.055 16.944 162.831 16.136 163.807 15.544C164.799 14.952 165.903 14.656 167.119 14.656C168.143 14.656 169.039 14.824 169.807 15.16C170.591 15.496 171.255 15.96 171.799 16.552C172.343 17.144 172.759 17.824 173.047 18.592C173.335 19.344 173.479 20.16 173.479 21.04C173.479 21.264 173.463 21.496 173.431 21.736C173.415 21.976 173.375 22.184 173.311 22.36H163.231V19.96H171.535L170.047 21.088C170.191 20.352 170.151 19.696 169.927 19.12C169.719 18.544 169.367 18.088 168.871 17.752C168.391 17.416 167.807 17.248 167.119 17.248C166.463 17.248 165.879 17.416 165.367 17.752C164.855 18.072 164.463 18.552 164.191 19.192C163.935 19.816 163.839 20.576 163.903 21.472C163.839 22.272 163.943 22.984 164.215 23.608C164.503 24.216 164.919 24.688 165.463 25.024C166.023 25.36 166.663 25.528 167.383 25.528C168.103 25.528 168.711 25.376 169.207 25.072C169.719 24.768 170.119 24.36 170.407 23.848L172.951 25.096C172.695 25.72 172.295 26.272 171.751 26.752C171.207 27.232 170.559 27.608 169.807 27.88C169.071 28.152 168.255 28.288 167.359 28.288ZM182.15 28.288C180.854 28.288 179.686 27.992 178.646 27.4C177.622 26.792 176.814 25.976 176.222 24.952C175.63 23.912 175.334 22.744 175.334 21.448C175.334 20.152 175.63 18.992 176.222 17.968C176.814 16.944 177.622 16.136 178.646 15.544C179.686 14.952 180.854 14.656 182.15 14.656C183.078 14.656 183.942 14.824 184.742 15.16C185.542 15.48 186.23 15.928 186.806 16.504C187.398 17.064 187.822 17.736 188.078 18.52L185.318 19.72C185.078 19.064 184.67 18.536 184.094 18.136C183.534 17.736 182.886 17.536 182.15 17.536C181.462 17.536 180.846 17.704 180.302 18.04C179.774 18.376 179.358 18.84 179.054 19.432C178.75 20.024 178.598 20.704 178.598 21.472C178.598 22.24 178.75 22.92 179.054 23.512C179.358 24.104 179.774 24.568 180.302 24.904C180.846 25.24 181.462 25.408 182.15 25.408C182.902 25.408 183.558 25.208 184.118 24.808C184.678 24.408 185.078 23.872 185.318 23.2L188.078 24.448C187.822 25.184 187.406 25.848 186.83 26.44C186.254 27.016 185.566 27.472 184.766 27.808C183.966 28.128 183.094 28.288 182.15 28.288ZM196.416 28.144C194.944 28.144 193.8 27.744 192.984 26.944C192.184 26.128 191.784 24.984 191.784 23.512V17.752H189.528V14.944H189.768C190.408 14.944 190.904 14.776 191.256 14.44C191.608 14.104 191.784 13.616 191.784 12.976V11.968H194.928V14.944H197.928V17.752H194.928V23.344C194.928 23.776 195 24.144 195.144 24.448C195.304 24.752 195.544 24.984 195.864 25.144C196.2 25.304 196.624 25.384 197.136 25.384C197.248 25.384 197.376 25.376 197.52 25.36C197.68 25.344 197.832 25.328 197.976 25.312V28C197.752 28.032 197.496 28.064 197.208 28.096C196.92 28.128 196.656 28.144 196.416 28.144Z" fill="white"/>
<defs>
<filter id="filter0_dd_1_3" x="0" y="0" width="38" height="38" filterUnits="userSpaceOnUse" color-interpolation-filters="sRGB">
<feFlood flood-opacity="0" result="BackgroundImageFix"/>
<feColorMatrix in="SourceAlpha" type="matrix" values="0 0 0 0 0 0 0 0 0 0 0 0 0 0 0 0 0 0 127 0" result="hardAlpha"/>
<feOffset dy="1"/>
<feGaussianBlur stdDeviation="1"/>
<feColorMatrix type="matrix" values="0 0 0 0 0.0627451 0 0 0 0 0.0941176 0 0 0 0 0.156863 0 0 0 0.06 0"/>
<feBlend mode="normal" in2="BackgroundImageFix" result="effect1_dropShadow_1_3"/>
<feColorMatrix in="SourceAlpha" type="matrix" values="0 0 0 0 0 0 0 0 0 0 0 0 0 0 0 0 0 0 127 0" result="hardAlpha"/>
<feOffset dy="1"/>
<feGaussianBlur stdDeviation="1.5"/>
<feColorMatrix type="matrix" values="0 0 0 0 0.0627451 0 0 0 0 0.0941176 0 0 0 0 0.156863 0 0 0 0.1 0"/>
<feBlend mode="normal" in2="effect1_dropShadow_1_3" result="effect2_dropShadow_1_3"/>
<feBlend mode="normal" in="SourceGraphic" in2="effect2_dropShadow_1_3" result="shape"/>
</filter>
<linearGradient id="paint0_linear_1_3" x1="19" y1="2" x2="19" y2="34" gradientUnits="userSpaceOnUse">
<stop stop-color="white"/>
<stop offset="1" stop-color="#D0D5DD"/>
</linearGradient>
<linearGradient id="paint1_linear_1_3" x1="10.1989" y1="24.2137" x2="27.8347" y2="6.57789" gradientUnits="userSpaceOnUse">
<stop stop-color="#0076C1"/>
<stop offset="0.0737" stop-color="#0B82C6"/>
<stop offset="0.2766" stop-color="#269ED3"/>
<stop offset="0.4546" stop-color="#36AFDA"/>
<stop offset="0.587" stop-color="#3CB5DD"/>
</linearGradient>
<linearGradient id="paint2_linear_1_3" x1="10.1388" y1="24.2537" x2="27.8274" y2="6.56509" gradientUnits="userSpaceOnUse">
<stop stop-color="#00A482"/>
<stop offset="1" stop-color="#79DD83"/>
</linearGradient>
<linearGradient id="paint3_linear_1_3" x1="24.8608" y1="13.5072" x2="28.5287" y2="10.1131" gradientUnits="userSpaceOnUse">
<stop stop-color="#00A482"/>
<stop offset="1" stop-color="#79DD83"/>
</linearGradient>
</defs>
</svg>
